<mxfile host="app.diagrams.net" modified="2024-01-18T01:16:45.360Z" agent="Mozilla/5.0 (Windows NT 10.0; Win64; x64) AppleWebKit/537.36 (KHTML, like Gecko) Chrome/119.0.0.0 Safari/537.36 OPR/105.0.0.0" etag="SfbE6nVb9csDJNOOaJ7R" version="22.1.21" type="github">
  <diagram name="Page-1" id="D6Qh5LazaMJVl4xbMqZl">
    <mxGraphModel dx="1012" dy="759" grid="1" gridSize="10" guides="1" tooltips="1" connect="1" arrows="1" fold="1" page="1" pageScale="1" pageWidth="850" pageHeight="1100" math="0" shadow="0">
      <root>
        <mxCell id="0" />
        <mxCell id="1" parent="0" />
        <mxCell id="K2DR9h9vuMe8s3sxu7e1-2" value="Object: Player" style="swimlane;fontStyle=1;align=center;verticalAlign=top;childLayout=stackLayout;horizontal=1;startSize=26;horizontalStack=0;resizeParent=1;resizeParentMax=0;resizeLast=0;collapsible=1;marginBottom=0;whiteSpace=wrap;html=1;" vertex="1" parent="1">
          <mxGeometry x="100" y="180" width="160" height="170" as="geometry" />
        </mxCell>
        <mxCell id="K2DR9h9vuMe8s3sxu7e1-3" value="+ field: type" style="text;strokeColor=none;fillColor=none;align=left;verticalAlign=top;spacingLeft=4;spacingRight=4;overflow=hidden;rotatable=0;points=[[0,0.5],[1,0.5]];portConstraint=eastwest;whiteSpace=wrap;html=1;" vertex="1" parent="K2DR9h9vuMe8s3sxu7e1-2">
          <mxGeometry y="26" width="160" height="26" as="geometry" />
        </mxCell>
        <mxCell id="K2DR9h9vuMe8s3sxu7e1-4" value="" style="line;strokeWidth=1;fillColor=none;align=left;verticalAlign=middle;spacingTop=-1;spacingLeft=3;spacingRight=3;rotatable=0;labelPosition=right;points=[];portConstraint=eastwest;strokeColor=inherit;" vertex="1" parent="K2DR9h9vuMe8s3sxu7e1-2">
          <mxGeometry y="52" width="160" height="8" as="geometry" />
        </mxCell>
        <mxCell id="K2DR9h9vuMe8s3sxu7e1-5" value="+ method(type): type" style="text;strokeColor=none;fillColor=none;align=left;verticalAlign=top;spacingLeft=4;spacingRight=4;overflow=hidden;rotatable=0;points=[[0,0.5],[1,0.5]];portConstraint=eastwest;whiteSpace=wrap;html=1;" vertex="1" parent="K2DR9h9vuMe8s3sxu7e1-2">
          <mxGeometry y="60" width="160" height="110" as="geometry" />
        </mxCell>
        <mxCell id="K2DR9h9vuMe8s3sxu7e1-12" value="" style="group" vertex="1" connectable="0" parent="1">
          <mxGeometry x="380" y="160" width="140" height="160" as="geometry" />
        </mxCell>
        <mxCell id="K2DR9h9vuMe8s3sxu7e1-10" value="&lt;p style=&quot;margin:0px;margin-top:4px;text-align:center;&quot;&gt;&lt;b&gt;Class: PlayerUtilities&lt;/b&gt;&lt;/p&gt;&lt;hr size=&quot;1&quot;&gt;&lt;div style=&quot;height:2px;&quot;&gt;&lt;br&gt;&lt;/div&gt;" style="verticalAlign=top;align=left;overflow=fill;fontSize=12;fontFamily=Helvetica;html=1;whiteSpace=wrap;" vertex="1" parent="K2DR9h9vuMe8s3sxu7e1-12">
          <mxGeometry width="140" height="160" as="geometry" />
        </mxCell>
        <mxCell id="K2DR9h9vuMe8s3sxu7e1-11" value="+ method(type): type" style="text;strokeColor=none;fillColor=none;align=left;verticalAlign=top;spacingLeft=4;spacingRight=4;overflow=hidden;rotatable=0;points=[[0,0.5],[1,0.5]];portConstraint=eastwest;whiteSpace=wrap;html=1;" vertex="1" parent="K2DR9h9vuMe8s3sxu7e1-12">
          <mxGeometry y="30" width="140" height="130" as="geometry" />
        </mxCell>
        <mxCell id="K2DR9h9vuMe8s3sxu7e1-13" value="PlayerStateMachine" style="swimlane;fontStyle=1;align=center;verticalAlign=top;childLayout=stackLayout;horizontal=1;startSize=26;horizontalStack=0;resizeParent=1;resizeParentMax=0;resizeLast=0;collapsible=1;marginBottom=0;whiteSpace=wrap;html=1;" vertex="1" parent="1">
          <mxGeometry x="40" y="464" width="430" height="478" as="geometry" />
        </mxCell>
        <mxCell id="K2DR9h9vuMe8s3sxu7e1-14" value="- accelerationMultiplier: AnimationCurve" style="text;strokeColor=none;fillColor=none;align=left;verticalAlign=top;spacingLeft=4;spacingRight=4;overflow=hidden;rotatable=0;points=[[0,0.5],[1,0.5]];portConstraint=eastwest;whiteSpace=wrap;html=1;" vertex="1" parent="K2DR9h9vuMe8s3sxu7e1-13">
          <mxGeometry y="26" width="430" height="204" as="geometry" />
        </mxCell>
        <mxCell id="K2DR9h9vuMe8s3sxu7e1-15" value="" style="line;strokeWidth=1;fillColor=none;align=left;verticalAlign=middle;spacingTop=-1;spacingLeft=3;spacingRight=3;rotatable=0;labelPosition=right;points=[];portConstraint=eastwest;strokeColor=inherit;" vertex="1" parent="K2DR9h9vuMe8s3sxu7e1-13">
          <mxGeometry y="230" width="430" height="8" as="geometry" />
        </mxCell>
        <mxCell id="K2DR9h9vuMe8s3sxu7e1-16" value="+ method(type): type" style="text;strokeColor=none;fillColor=none;align=left;verticalAlign=top;spacingLeft=4;spacingRight=4;overflow=hidden;rotatable=0;points=[[0,0.5],[1,0.5]];portConstraint=eastwest;whiteSpace=wrap;html=1;" vertex="1" parent="K2DR9h9vuMe8s3sxu7e1-13">
          <mxGeometry y="238" width="430" height="240" as="geometry" />
        </mxCell>
        <mxCell id="K2DR9h9vuMe8s3sxu7e1-46" value="&amp;nbsp;" style="endArrow=open;html=1;endSize=12;startArrow=diamondThin;startSize=14;startFill=1;edgeStyle=orthogonalEdgeStyle;align=left;verticalAlign=bottom;rounded=0;exitX=0.494;exitY=0.997;exitDx=0;exitDy=0;exitPerimeter=0;entryX=0.5;entryY=0;entryDx=0;entryDy=0;" edge="1" parent="1" source="K2DR9h9vuMe8s3sxu7e1-5" target="K2DR9h9vuMe8s3sxu7e1-13">
          <mxGeometry x="-1" y="3" relative="1" as="geometry">
            <mxPoint x="169.26999999999995" y="380.00000000000006" as="sourcePoint" />
            <mxPoint x="170.23" y="470.33" as="targetPoint" />
          </mxGeometry>
        </mxCell>
        <mxCell id="K2DR9h9vuMe8s3sxu7e1-57" value="&lt;p style=&quot;margin:0px;margin-top:4px;text-align:center;text-decoration:underline;&quot;&gt;&lt;b&gt;Keybinds&lt;/b&gt;&lt;/p&gt;&lt;hr&gt;&lt;p style=&quot;margin:0px;margin-left:8px;&quot;&gt;field1 = value1&lt;br&gt;field2 = value2&lt;br&gt;field3 = value3&lt;/p&gt;" style="verticalAlign=top;align=left;overflow=fill;fontSize=12;fontFamily=Helvetica;html=1;whiteSpace=wrap;" vertex="1" parent="1">
          <mxGeometry x="670" y="170" width="160" height="90" as="geometry" />
        </mxCell>
        <mxCell id="K2DR9h9vuMe8s3sxu7e1-59" value="&lt;span style=&quot;font-weight: normal;&quot;&gt;&lt;i&gt;&amp;lt;Abstract&amp;gt;&lt;br&gt;&lt;/i&gt;&lt;/span&gt;PlayerState" style="swimlane;fontStyle=1;align=center;verticalAlign=top;childLayout=stackLayout;horizontal=1;startSize=40;horizontalStack=0;resizeParent=1;resizeParentMax=0;resizeLast=0;collapsible=1;marginBottom=0;whiteSpace=wrap;html=1;" vertex="1" parent="1">
          <mxGeometry x="570" y="450" width="240" height="390" as="geometry">
            <mxRectangle x="600" y="890" width="100" height="30" as="alternateBounds" />
          </mxGeometry>
        </mxCell>
        <mxCell id="K2DR9h9vuMe8s3sxu7e1-60" value="&amp;nbsp;+ name : String&lt;p style=&quot;border-color: var(--border-color); margin: 0px 0px 0px 4px;&quot;&gt;+ _isRootState : bool&lt;br style=&quot;border-color: var(--border-color);&quot;&gt;+ _currentSuperState: PlayerState&lt;/p&gt;&lt;p style=&quot;border-color: var(--border-color); margin: 0px 0px 0px 4px;&quot;&gt;+ _currentSubState: PlayerState&lt;/p&gt;&lt;p style=&quot;border-color: var(--border-color); margin: 0px 0px 0px 4px;&quot;&gt;+ player: Player&lt;/p&gt;&lt;p style=&quot;border-color: var(--border-color); margin: 0px 0px 0px 4px;&quot;&gt;+ _psm: PlayerStateMachine&lt;/p&gt;&lt;p style=&quot;border-color: var(--border-color); margin: 0px 0px 0px 4px;&quot;&gt;&lt;br&gt;&lt;/p&gt;" style="text;strokeColor=none;fillColor=none;align=left;verticalAlign=top;spacingLeft=4;spacingRight=4;overflow=hidden;rotatable=0;points=[[0,0.5],[1,0.5]];portConstraint=eastwest;whiteSpace=wrap;html=1;" vertex="1" parent="K2DR9h9vuMe8s3sxu7e1-59">
          <mxGeometry y="40" width="240" height="110" as="geometry" />
        </mxCell>
        <mxCell id="K2DR9h9vuMe8s3sxu7e1-61" value="" style="line;strokeWidth=1;fillColor=none;align=left;verticalAlign=middle;spacingTop=-1;spacingLeft=3;spacingRight=3;rotatable=0;labelPosition=right;points=[];portConstraint=eastwest;strokeColor=inherit;" vertex="1" parent="K2DR9h9vuMe8s3sxu7e1-59">
          <mxGeometry y="150" width="240" height="8" as="geometry" />
        </mxCell>
        <mxCell id="K2DR9h9vuMe8s3sxu7e1-62" value="+ PlayerState( ) : void&lt;br&gt;+ GetName( ) : string&lt;br&gt;+ GetSubState( ) : PlayerState&lt;br&gt;+ GetSuperState( ) : PlayerState&lt;br&gt;+ EnterState( ) : void&lt;br&gt;+ ExitState( ) : void&lt;br&gt;+ FrameUpdate( ) : void&lt;br&gt;+ PhysicsUpdate( ) : void&lt;br&gt;+ CheckSwitchState( ) : bool&lt;br&gt;+ InitializeSubState( ) : void&lt;br&gt;+ UpdateStates( ) : void&lt;br&gt;+ UpdatePhysicsStates( ) : void&lt;br&gt;+ SetSuperState( ) : void&lt;br&gt;+ SetSubState( ) : void&lt;br&gt;+ SwitchState( ) : void&lt;br&gt;" style="text;strokeColor=none;fillColor=none;align=left;verticalAlign=top;spacingLeft=4;spacingRight=4;overflow=hidden;rotatable=0;points=[[0,0.5],[1,0.5]];portConstraint=eastwest;whiteSpace=wrap;html=1;" vertex="1" parent="K2DR9h9vuMe8s3sxu7e1-59">
          <mxGeometry y="158" width="240" height="232" as="geometry" />
        </mxCell>
        <mxCell id="K2DR9h9vuMe8s3sxu7e1-67" style="edgeStyle=orthogonalEdgeStyle;rounded=0;orthogonalLoop=1;jettySize=auto;html=1;" edge="1" parent="1" source="K2DR9h9vuMe8s3sxu7e1-63" target="K2DR9h9vuMe8s3sxu7e1-59">
          <mxGeometry relative="1" as="geometry" />
        </mxCell>
        <mxCell id="K2DR9h9vuMe8s3sxu7e1-63" value="MovementStates" style="swimlane;fontStyle=1;align=center;verticalAlign=top;childLayout=stackLayout;horizontal=1;startSize=26;horizontalStack=0;resizeParent=1;resizeParentMax=0;resizeLast=0;collapsible=1;marginBottom=0;whiteSpace=wrap;html=1;" vertex="1" parent="1">
          <mxGeometry x="490" y="942" width="160" height="86" as="geometry" />
        </mxCell>
        <mxCell id="K2DR9h9vuMe8s3sxu7e1-64" value="+ field: type" style="text;strokeColor=none;fillColor=none;align=left;verticalAlign=top;spacingLeft=4;spacingRight=4;overflow=hidden;rotatable=0;points=[[0,0.5],[1,0.5]];portConstraint=eastwest;whiteSpace=wrap;html=1;" vertex="1" parent="K2DR9h9vuMe8s3sxu7e1-63">
          <mxGeometry y="26" width="160" height="26" as="geometry" />
        </mxCell>
        <mxCell id="K2DR9h9vuMe8s3sxu7e1-65" value="" style="line;strokeWidth=1;fillColor=none;align=left;verticalAlign=middle;spacingTop=-1;spacingLeft=3;spacingRight=3;rotatable=0;labelPosition=right;points=[];portConstraint=eastwest;strokeColor=inherit;" vertex="1" parent="K2DR9h9vuMe8s3sxu7e1-63">
          <mxGeometry y="52" width="160" height="8" as="geometry" />
        </mxCell>
        <mxCell id="K2DR9h9vuMe8s3sxu7e1-66" value="+ method(type): type" style="text;strokeColor=none;fillColor=none;align=left;verticalAlign=top;spacingLeft=4;spacingRight=4;overflow=hidden;rotatable=0;points=[[0,0.5],[1,0.5]];portConstraint=eastwest;whiteSpace=wrap;html=1;" vertex="1" parent="K2DR9h9vuMe8s3sxu7e1-63">
          <mxGeometry y="60" width="160" height="26" as="geometry" />
        </mxCell>
        <mxCell id="K2DR9h9vuMe8s3sxu7e1-78" style="edgeStyle=orthogonalEdgeStyle;rounded=0;orthogonalLoop=1;jettySize=auto;html=1;exitX=0.5;exitY=0;exitDx=0;exitDy=0;" edge="1" parent="1" source="K2DR9h9vuMe8s3sxu7e1-74" target="K2DR9h9vuMe8s3sxu7e1-63">
          <mxGeometry relative="1" as="geometry" />
        </mxCell>
        <mxCell id="K2DR9h9vuMe8s3sxu7e1-74" value="PlayerIdleState" style="swimlane;fontStyle=1;align=center;verticalAlign=top;childLayout=stackLayout;horizontal=1;startSize=26;horizontalStack=0;resizeParent=1;resizeParentMax=0;resizeLast=0;collapsible=1;marginBottom=0;whiteSpace=wrap;html=1;" vertex="1" parent="1">
          <mxGeometry x="380" y="1254" width="160" height="86" as="geometry" />
        </mxCell>
        <mxCell id="K2DR9h9vuMe8s3sxu7e1-75" value="+ field: type" style="text;strokeColor=none;fillColor=none;align=left;verticalAlign=top;spacingLeft=4;spacingRight=4;overflow=hidden;rotatable=0;points=[[0,0.5],[1,0.5]];portConstraint=eastwest;whiteSpace=wrap;html=1;" vertex="1" parent="K2DR9h9vuMe8s3sxu7e1-74">
          <mxGeometry y="26" width="160" height="26" as="geometry" />
        </mxCell>
        <mxCell id="K2DR9h9vuMe8s3sxu7e1-76" value="" style="line;strokeWidth=1;fillColor=none;align=left;verticalAlign=middle;spacingTop=-1;spacingLeft=3;spacingRight=3;rotatable=0;labelPosition=right;points=[];portConstraint=eastwest;strokeColor=inherit;" vertex="1" parent="K2DR9h9vuMe8s3sxu7e1-74">
          <mxGeometry y="52" width="160" height="8" as="geometry" />
        </mxCell>
        <mxCell id="K2DR9h9vuMe8s3sxu7e1-77" value="+ method(type): type" style="text;strokeColor=none;fillColor=none;align=left;verticalAlign=top;spacingLeft=4;spacingRight=4;overflow=hidden;rotatable=0;points=[[0,0.5],[1,0.5]];portConstraint=eastwest;whiteSpace=wrap;html=1;" vertex="1" parent="K2DR9h9vuMe8s3sxu7e1-74">
          <mxGeometry y="60" width="160" height="26" as="geometry" />
        </mxCell>
        <mxCell id="K2DR9h9vuMe8s3sxu7e1-101" style="edgeStyle=orthogonalEdgeStyle;rounded=0;orthogonalLoop=1;jettySize=auto;html=1;" edge="1" parent="1" source="K2DR9h9vuMe8s3sxu7e1-79" target="K2DR9h9vuMe8s3sxu7e1-63">
          <mxGeometry relative="1" as="geometry" />
        </mxCell>
        <mxCell id="K2DR9h9vuMe8s3sxu7e1-79" value="PlayerWalkingState" style="swimlane;fontStyle=1;align=center;verticalAlign=top;childLayout=stackLayout;horizontal=1;startSize=26;horizontalStack=0;resizeParent=1;resizeParentMax=0;resizeLast=0;collapsible=1;marginBottom=0;whiteSpace=wrap;html=1;" vertex="1" parent="1">
          <mxGeometry x="590" y="1254" width="160" height="86" as="geometry" />
        </mxCell>
        <mxCell id="K2DR9h9vuMe8s3sxu7e1-80" value="+ field: type" style="text;strokeColor=none;fillColor=none;align=left;verticalAlign=top;spacingLeft=4;spacingRight=4;overflow=hidden;rotatable=0;points=[[0,0.5],[1,0.5]];portConstraint=eastwest;whiteSpace=wrap;html=1;" vertex="1" parent="K2DR9h9vuMe8s3sxu7e1-79">
          <mxGeometry y="26" width="160" height="26" as="geometry" />
        </mxCell>
        <mxCell id="K2DR9h9vuMe8s3sxu7e1-81" value="" style="line;strokeWidth=1;fillColor=none;align=left;verticalAlign=middle;spacingTop=-1;spacingLeft=3;spacingRight=3;rotatable=0;labelPosition=right;points=[];portConstraint=eastwest;strokeColor=inherit;" vertex="1" parent="K2DR9h9vuMe8s3sxu7e1-79">
          <mxGeometry y="52" width="160" height="8" as="geometry" />
        </mxCell>
        <mxCell id="K2DR9h9vuMe8s3sxu7e1-82" value="+ method(type): type" style="text;strokeColor=none;fillColor=none;align=left;verticalAlign=top;spacingLeft=4;spacingRight=4;overflow=hidden;rotatable=0;points=[[0,0.5],[1,0.5]];portConstraint=eastwest;whiteSpace=wrap;html=1;" vertex="1" parent="K2DR9h9vuMe8s3sxu7e1-79">
          <mxGeometry y="60" width="160" height="26" as="geometry" />
        </mxCell>
        <mxCell id="K2DR9h9vuMe8s3sxu7e1-102" style="edgeStyle=orthogonalEdgeStyle;rounded=0;orthogonalLoop=1;jettySize=auto;html=1;" edge="1" parent="1" source="K2DR9h9vuMe8s3sxu7e1-83" target="K2DR9h9vuMe8s3sxu7e1-59">
          <mxGeometry relative="1" as="geometry">
            <Array as="points">
              <mxPoint x="950" y="890" />
              <mxPoint x="690" y="890" />
            </Array>
          </mxGeometry>
        </mxCell>
        <mxCell id="K2DR9h9vuMe8s3sxu7e1-83" value="PlayerGroundState" style="swimlane;fontStyle=1;align=center;verticalAlign=top;childLayout=stackLayout;horizontal=1;startSize=26;horizontalStack=0;resizeParent=1;resizeParentMax=0;resizeLast=0;collapsible=1;marginBottom=0;whiteSpace=wrap;html=1;" vertex="1" parent="1">
          <mxGeometry x="870" y="942" width="160" height="86" as="geometry" />
        </mxCell>
        <mxCell id="K2DR9h9vuMe8s3sxu7e1-84" value="+ field: type" style="text;strokeColor=none;fillColor=none;align=left;verticalAlign=top;spacingLeft=4;spacingRight=4;overflow=hidden;rotatable=0;points=[[0,0.5],[1,0.5]];portConstraint=eastwest;whiteSpace=wrap;html=1;" vertex="1" parent="K2DR9h9vuMe8s3sxu7e1-83">
          <mxGeometry y="26" width="160" height="26" as="geometry" />
        </mxCell>
        <mxCell id="K2DR9h9vuMe8s3sxu7e1-85" value="" style="line;strokeWidth=1;fillColor=none;align=left;verticalAlign=middle;spacingTop=-1;spacingLeft=3;spacingRight=3;rotatable=0;labelPosition=right;points=[];portConstraint=eastwest;strokeColor=inherit;" vertex="1" parent="K2DR9h9vuMe8s3sxu7e1-83">
          <mxGeometry y="52" width="160" height="8" as="geometry" />
        </mxCell>
        <mxCell id="K2DR9h9vuMe8s3sxu7e1-86" value="+ method(type): type" style="text;strokeColor=none;fillColor=none;align=left;verticalAlign=top;spacingLeft=4;spacingRight=4;overflow=hidden;rotatable=0;points=[[0,0.5],[1,0.5]];portConstraint=eastwest;whiteSpace=wrap;html=1;" vertex="1" parent="K2DR9h9vuMe8s3sxu7e1-83">
          <mxGeometry y="60" width="160" height="26" as="geometry" />
        </mxCell>
        <mxCell id="K2DR9h9vuMe8s3sxu7e1-103" style="edgeStyle=orthogonalEdgeStyle;rounded=0;orthogonalLoop=1;jettySize=auto;html=1;" edge="1" parent="1" source="K2DR9h9vuMe8s3sxu7e1-87" target="K2DR9h9vuMe8s3sxu7e1-59">
          <mxGeometry relative="1" as="geometry" />
        </mxCell>
        <mxCell id="K2DR9h9vuMe8s3sxu7e1-87" value="PlayerAirState" style="swimlane;fontStyle=1;align=center;verticalAlign=top;childLayout=stackLayout;horizontal=1;startSize=26;horizontalStack=0;resizeParent=1;resizeParentMax=0;resizeLast=0;collapsible=1;marginBottom=0;whiteSpace=wrap;html=1;" vertex="1" parent="1">
          <mxGeometry x="670" y="942" width="160" height="86" as="geometry" />
        </mxCell>
        <mxCell id="K2DR9h9vuMe8s3sxu7e1-88" value="+ field: type" style="text;strokeColor=none;fillColor=none;align=left;verticalAlign=top;spacingLeft=4;spacingRight=4;overflow=hidden;rotatable=0;points=[[0,0.5],[1,0.5]];portConstraint=eastwest;whiteSpace=wrap;html=1;" vertex="1" parent="K2DR9h9vuMe8s3sxu7e1-87">
          <mxGeometry y="26" width="160" height="26" as="geometry" />
        </mxCell>
        <mxCell id="K2DR9h9vuMe8s3sxu7e1-89" value="" style="line;strokeWidth=1;fillColor=none;align=left;verticalAlign=middle;spacingTop=-1;spacingLeft=3;spacingRight=3;rotatable=0;labelPosition=right;points=[];portConstraint=eastwest;strokeColor=inherit;" vertex="1" parent="K2DR9h9vuMe8s3sxu7e1-87">
          <mxGeometry y="52" width="160" height="8" as="geometry" />
        </mxCell>
        <mxCell id="K2DR9h9vuMe8s3sxu7e1-90" value="+ method(type): type" style="text;strokeColor=none;fillColor=none;align=left;verticalAlign=top;spacingLeft=4;spacingRight=4;overflow=hidden;rotatable=0;points=[[0,0.5],[1,0.5]];portConstraint=eastwest;whiteSpace=wrap;html=1;" vertex="1" parent="K2DR9h9vuMe8s3sxu7e1-87">
          <mxGeometry y="60" width="160" height="26" as="geometry" />
        </mxCell>
        <mxCell id="K2DR9h9vuMe8s3sxu7e1-95" style="edgeStyle=orthogonalEdgeStyle;rounded=0;orthogonalLoop=1;jettySize=auto;html=1;" edge="1" parent="1" source="K2DR9h9vuMe8s3sxu7e1-91" target="K2DR9h9vuMe8s3sxu7e1-79">
          <mxGeometry relative="1" as="geometry" />
        </mxCell>
        <mxCell id="K2DR9h9vuMe8s3sxu7e1-91" value="PlayerSprintingState" style="swimlane;fontStyle=1;align=center;verticalAlign=top;childLayout=stackLayout;horizontal=1;startSize=26;horizontalStack=0;resizeParent=1;resizeParentMax=0;resizeLast=0;collapsible=1;marginBottom=0;whiteSpace=wrap;html=1;" vertex="1" parent="1">
          <mxGeometry x="590" y="1440" width="160" height="86" as="geometry" />
        </mxCell>
        <mxCell id="K2DR9h9vuMe8s3sxu7e1-92" value="+ field: type" style="text;strokeColor=none;fillColor=none;align=left;verticalAlign=top;spacingLeft=4;spacingRight=4;overflow=hidden;rotatable=0;points=[[0,0.5],[1,0.5]];portConstraint=eastwest;whiteSpace=wrap;html=1;" vertex="1" parent="K2DR9h9vuMe8s3sxu7e1-91">
          <mxGeometry y="26" width="160" height="26" as="geometry" />
        </mxCell>
        <mxCell id="K2DR9h9vuMe8s3sxu7e1-93" value="" style="line;strokeWidth=1;fillColor=none;align=left;verticalAlign=middle;spacingTop=-1;spacingLeft=3;spacingRight=3;rotatable=0;labelPosition=right;points=[];portConstraint=eastwest;strokeColor=inherit;" vertex="1" parent="K2DR9h9vuMe8s3sxu7e1-91">
          <mxGeometry y="52" width="160" height="8" as="geometry" />
        </mxCell>
        <mxCell id="K2DR9h9vuMe8s3sxu7e1-94" value="+ method(type): type" style="text;strokeColor=none;fillColor=none;align=left;verticalAlign=top;spacingLeft=4;spacingRight=4;overflow=hidden;rotatable=0;points=[[0,0.5],[1,0.5]];portConstraint=eastwest;whiteSpace=wrap;html=1;" vertex="1" parent="K2DR9h9vuMe8s3sxu7e1-91">
          <mxGeometry y="60" width="160" height="26" as="geometry" />
        </mxCell>
        <mxCell id="K2DR9h9vuMe8s3sxu7e1-100" style="edgeStyle=orthogonalEdgeStyle;rounded=0;orthogonalLoop=1;jettySize=auto;html=1;" edge="1" parent="1" source="K2DR9h9vuMe8s3sxu7e1-96" target="K2DR9h9vuMe8s3sxu7e1-63">
          <mxGeometry relative="1" as="geometry" />
        </mxCell>
        <mxCell id="K2DR9h9vuMe8s3sxu7e1-96" value="PlayerCrouchState" style="swimlane;fontStyle=1;align=center;verticalAlign=top;childLayout=stackLayout;horizontal=1;startSize=26;horizontalStack=0;resizeParent=1;resizeParentMax=0;resizeLast=0;collapsible=1;marginBottom=0;whiteSpace=wrap;html=1;" vertex="1" parent="1">
          <mxGeometry x="160" y="1100" width="160" height="86" as="geometry" />
        </mxCell>
        <mxCell id="K2DR9h9vuMe8s3sxu7e1-97" value="+ field: type" style="text;strokeColor=none;fillColor=none;align=left;verticalAlign=top;spacingLeft=4;spacingRight=4;overflow=hidden;rotatable=0;points=[[0,0.5],[1,0.5]];portConstraint=eastwest;whiteSpace=wrap;html=1;" vertex="1" parent="K2DR9h9vuMe8s3sxu7e1-96">
          <mxGeometry y="26" width="160" height="26" as="geometry" />
        </mxCell>
        <mxCell id="K2DR9h9vuMe8s3sxu7e1-98" value="" style="line;strokeWidth=1;fillColor=none;align=left;verticalAlign=middle;spacingTop=-1;spacingLeft=3;spacingRight=3;rotatable=0;labelPosition=right;points=[];portConstraint=eastwest;strokeColor=inherit;" vertex="1" parent="K2DR9h9vuMe8s3sxu7e1-96">
          <mxGeometry y="52" width="160" height="8" as="geometry" />
        </mxCell>
        <mxCell id="K2DR9h9vuMe8s3sxu7e1-99" value="+ method(type): type" style="text;strokeColor=none;fillColor=none;align=left;verticalAlign=top;spacingLeft=4;spacingRight=4;overflow=hidden;rotatable=0;points=[[0,0.5],[1,0.5]];portConstraint=eastwest;whiteSpace=wrap;html=1;" vertex="1" parent="K2DR9h9vuMe8s3sxu7e1-96">
          <mxGeometry y="60" width="160" height="26" as="geometry" />
        </mxCell>
      </root>
    </mxGraphModel>
  </diagram>
</mxfile>
